<svg width="64" height="64" viewBox="0 0 64 64" fill="none" xmlns="http://www.w3.org/2000/svg">
<g clip-path="url(#clip0_23478_75970)">
<mask id="mask0_23478_75970" style="mask-type:luminance" maskUnits="userSpaceOnUse" x="0" y="0" width="64" height="64">
<path d="M64 0H0V64H64V0Z" fill="white"/>
</mask>
<g mask="url(#mask0_23478_75970)">
<path d="M64 0H0V64H64V0Z" fill="#ECFCCB"/>
<path d="M42.558 13.709H41.0237C40.7127 13.709 40.4609 13.9611 40.4609 14.2718V15.2945C40.4609 15.6055 40.7131 15.8573 41.0237 15.8573H42.558C42.869 15.8573 43.1208 15.6055 43.1208 15.2945V14.2718C43.1204 13.9607 42.8686 13.709 42.558 13.709ZM41.8271 15.5065C41.4278 15.5065 41.1035 15.1823 41.1035 14.7829C41.1035 14.3831 41.4278 14.0593 41.8271 14.0593C42.2269 14.0593 42.5508 14.3831 42.5508 14.7829C42.5508 15.1827 42.2269 15.5065 41.8271 15.5065Z" fill="white"/>
<path d="M44.1404 14.7833V15.8573L43.4415 15.3201L42.7422 14.7833L43.4415 14.2462L44.1404 13.709V14.7833Z" fill="white"/>
<path d="M41.8277 15.212C42.0647 15.212 42.2569 15.0198 42.2569 14.7827C42.2569 14.5457 42.0647 14.3535 41.8277 14.3535C41.5906 14.3535 41.3984 14.5457 41.3984 14.7827C41.3984 15.0198 41.5906 15.212 41.8277 15.212Z" fill="white"/>
<path d="M39.5352 56.1855H6.10505C5.20862 59.3902 9.02729 60.2726 9.02729 60.2726H36.0818C40.1181 60.2726 39.5352 56.1855 39.5352 56.1855Z" fill="#1A2E05"/>
<path d="M25.7721 57.5696C25.8058 57.5935 25.9077 57.6643 26.078 57.782C26.2482 57.8998 26.3783 57.9907 26.4688 58.0543C26.4786 58.0611 26.4999 58.0764 26.5324 58.0999C26.5648 58.1234 26.5917 58.1421 26.613 58.1567C26.6343 58.1712 26.6604 58.1874 26.6907 58.2053C26.721 58.2232 26.7495 58.2364 26.7764 58.2454C26.8033 58.2544 26.8281 58.2586 26.8511 58.2586H26.8541C26.8771 58.2586 26.9019 58.2544 26.9287 58.2454C26.9556 58.2364 26.9842 58.2232 27.0145 58.2053C27.0448 58.1874 27.0708 58.1712 27.0922 58.1567C27.1135 58.1421 27.1404 58.1234 27.1728 58.0999C27.2052 58.0764 27.2261 58.0615 27.2364 58.0543C27.3277 57.9907 27.5606 57.829 27.9348 57.5691C28.0074 57.5184 28.0679 57.4573 28.117 57.3857C28.1657 57.314 28.19 57.2389 28.19 57.1604C28.19 57.0947 28.1665 57.0384 28.1191 56.9918C28.0718 56.9449 28.0159 56.9219 27.9515 56.9219H25.7541C25.6778 56.9219 25.6185 56.9479 25.5775 56.9995C25.5361 57.0512 25.5156 57.116 25.5156 57.1937C25.5156 57.2564 25.5429 57.3242 25.5975 57.3972C25.6522 57.4706 25.7106 57.5282 25.7721 57.5696Z" fill="white"/>
<path d="M28.0398 57.7293C27.7134 57.9499 27.4659 58.1218 27.297 58.2439C27.2402 58.2857 27.1941 58.3181 27.1591 58.3416C27.1237 58.3651 27.0768 58.3889 27.0179 58.4133C26.9595 58.4376 26.9044 58.45 26.8537 58.45H26.8507C26.7999 58.45 26.7453 58.4376 26.6864 58.4133C26.6279 58.3889 26.5806 58.3651 26.5456 58.3416C26.5102 58.3181 26.4641 58.2857 26.4078 58.2439C26.2734 58.1453 26.0263 57.9738 25.6662 57.7293C25.6095 57.6913 25.5591 57.6482 25.5156 57.5996V58.7845C25.5156 58.8502 25.5391 58.9065 25.5856 58.953C25.6325 58.9999 25.6884 59.023 25.7541 59.023H27.9506C28.0163 59.023 28.0726 58.9995 28.1191 58.953C28.1661 58.9061 28.1891 58.8502 28.1891 58.7845V57.5996C28.1465 57.647 28.0965 57.6905 28.0398 57.7293Z" fill="white"/>
<path d="M34.515 59.0651C33.9121 59.0651 33.4219 58.5749 33.4219 57.972C33.4219 57.3691 33.9121 56.8789 34.515 56.8789C35.1179 56.8789 35.6081 57.3691 35.6081 57.972C35.6081 58.5749 35.1174 59.0651 34.515 59.0651ZM34.515 56.9647C33.9595 56.9647 33.5072 57.4165 33.5072 57.9725C33.5072 58.5284 33.9595 58.9802 34.515 58.9802C35.0705 58.9802 35.5228 58.528 35.5228 57.9725C35.5228 57.4169 35.0705 56.9647 34.515 56.9647Z" fill="white"/>
<path d="M34.5142 58.6593C34.8931 58.6593 35.2003 58.3521 35.2003 57.9732C35.2003 57.5943 34.8931 57.2871 34.5142 57.2871C34.1353 57.2871 33.8281 57.5943 33.8281 57.9732C33.8281 58.3521 34.1353 58.6593 34.5142 58.6593Z" fill="white"/>
<path d="M18.7892 58.1234C19.1172 58.1234 19.3832 57.8575 19.3832 57.5295C19.3832 57.2015 19.1172 56.9355 18.7892 56.9355C18.4612 56.9355 18.1953 57.2015 18.1953 57.5295C18.1953 57.8575 18.4612 58.1234 18.7892 58.1234Z" fill="white"/>
<path d="M19.8187 59.0233C19.6408 58.6338 19.2483 58.3633 18.7922 58.3633C18.3361 58.3633 17.9435 58.6342 17.7656 59.0233H19.8187Z" fill="white"/>
<path d="M20.241 57.5801H19.9453V58.6668H20.241V57.5801Z" fill="white"/>
<path d="M20.6336 58.2703V57.9746H19.5469V58.2703H20.6336Z" fill="white"/>
<path d="M11.746 57.1172H10.5257C10.2782 57.1172 10.0781 57.3177 10.0781 57.5648V58.3784C10.0781 58.6259 10.2787 58.826 10.5257 58.826H11.746C11.9934 58.826 12.1935 58.6259 12.1935 58.3784V57.5648C12.1935 57.3177 11.993 57.1172 11.746 57.1172ZM11.1648 58.5474C10.847 58.5474 10.5893 58.2897 10.5893 57.9718C10.5893 57.6539 10.847 57.3962 11.1648 57.3962C11.4827 57.3962 11.7404 57.6539 11.7404 57.9718C11.74 58.2892 11.4827 58.5474 11.1648 58.5474Z" fill="white"/>
<path d="M13.0025 57.9718V58.826L12.4466 58.3989L11.8906 57.9718L12.4466 57.5443L13.0025 57.1172V57.9718Z" fill="white"/>
<path d="M11.1616 58.3135C11.3502 58.3135 11.503 58.1607 11.503 57.9722C11.503 57.7837 11.3502 57.6309 11.1616 57.6309C10.9731 57.6309 10.8203 57.7837 10.8203 57.9722C10.8203 58.1607 10.9731 58.3135 11.1616 58.3135Z" fill="white"/>
<path d="M58.3903 11.0879H40.8402C38.8665 11.0879 37.2656 12.6879 37.2656 14.6621V33.8578V36.3845H38.2337V15.6302C38.2337 13.6564 39.8342 12.056 41.8083 12.056H57.4218C59.396 12.056 60.9964 13.656 60.9964 15.6302V46.0558C60.9964 48.0295 59.3964 49.63 57.4218 49.63H40.5053V50.5981H58.3903C60.3645 50.5981 61.9649 48.9981 61.9649 47.0239V14.6616C61.9649 12.6879 60.3645 11.0879 58.3903 11.0879Z" fill="white"/>
<path d="M36.9255 35.5293H8.707C6.73281 35.5293 5.13281 37.1297 5.13281 39.1035V57.1532C5.13281 59.1274 6.73324 60.7274 8.707 60.7274H36.9255C38.8996 60.7274 40.4996 59.127 40.4996 57.1532V39.1035C40.4996 37.1297 38.8996 35.5293 36.9255 35.5293ZM39.5315 56.1851C39.5315 58.1593 37.9311 59.7593 35.9573 59.7593H9.67553C7.70135 59.7593 6.10135 58.1588 6.10135 56.1851V40.072C6.10135 38.0978 7.70177 36.4978 9.67553 36.4978H35.9573C37.9315 36.4978 39.5315 38.0983 39.5315 40.072V56.1851Z" fill="white"/>
<path d="M47.9986 10.2586H30.9533C29.9997 10.2586 29.2266 9.48546 29.2266 8.53186V4.9982C29.2266 4.0446 29.9997 3.27148 30.9533 3.27148H47.9986C48.9522 3.27148 49.7253 4.0446 49.7253 4.9982V8.53186C49.7253 9.48546 48.9522 10.2586 47.9986 10.2586Z" fill="#1A2E05"/>
<path d="M41.8359 9.66016L45.4588 13.2066V9.66016H41.8359Z" fill="#1A2E05"/>
<path d="M33.9836 7.6626C34.4794 7.6626 34.8814 7.26068 34.8814 6.76489C34.8814 6.2691 34.4794 5.86719 33.9836 5.86719C33.4879 5.86719 33.0859 6.2691 33.0859 6.76489C33.0859 7.26068 33.4879 7.6626 33.9836 7.6626Z" fill="white"/>
<path d="M39.4758 7.6626C39.9716 7.6626 40.3735 7.26068 40.3735 6.76489C40.3735 6.2691 39.9716 5.86719 39.4758 5.86719C38.98 5.86719 38.5781 6.2691 38.5781 6.76489C38.5781 7.26068 38.98 7.6626 39.4758 7.6626Z" fill="white"/>
<path d="M44.9602 7.6626C45.456 7.6626 45.8579 7.26068 45.8579 6.76489C45.8579 6.2691 45.456 5.86719 44.9602 5.86719C44.4644 5.86719 44.0625 6.2691 44.0625 6.76489C44.0625 7.26068 44.4644 7.6626 44.9602 7.6626Z" fill="white"/>
<path d="M32.5756 8.29297H14.6671C13.5697 8.29297 12.6797 9.18257 12.6797 10.2804V19.6176C12.6797 20.7149 13.5693 21.605 14.6671 21.605H16.9988V25.3349L21.2988 21.605H32.576C33.6734 21.605 34.5634 20.7154 34.5634 19.6176V10.28C34.563 9.18257 33.6734 8.29297 32.5756 8.29297Z" fill="#84CC16"/>
<path d="M30.4482 19.7269H17.9802C17.9567 19.7269 17.9375 19.7077 17.9375 19.6842V9.6247C17.9375 9.60123 17.9567 9.58203 17.9802 9.58203H30.4478C30.4713 9.58203 30.4905 9.60123 30.4905 9.6247V19.6842C30.4909 19.7077 30.4717 19.7269 30.4482 19.7269ZM18.0228 19.6416H30.4051V9.66736H18.0228V19.6416Z" fill="white"/>
<path d="M30.4484 19.7261C30.4331 19.7261 30.4181 19.718 30.4109 19.7035L27.6188 14.4261L25.456 15.9488C25.4376 15.9616 25.412 15.9582 25.398 15.9407L22.9638 12.8913L18.0149 19.7082C18.0013 19.7274 17.9744 19.7317 17.9552 19.7176C17.936 19.7039 17.9317 19.677 17.9458 19.6578L22.9276 12.7949C22.9352 12.7842 22.9476 12.7774 22.9613 12.7774C22.9745 12.7766 22.9873 12.783 22.9954 12.7936L25.4398 15.8554L27.6094 14.3279C27.6192 14.3207 27.632 14.3185 27.6439 14.3215C27.6559 14.3245 27.6661 14.3322 27.6717 14.3429L30.4864 19.663C30.4975 19.6839 30.4894 19.7095 30.4685 19.7206C30.4621 19.7244 30.4552 19.7261 30.4484 19.7261Z" fill="white"/>
<path d="M26.3424 13.009C25.6883 13.009 25.1562 12.4769 25.1562 11.8229C25.1562 11.1688 25.6883 10.6367 26.3424 10.6367C26.9965 10.6367 27.5285 11.1688 27.5285 11.8229C27.5285 12.4769 26.9965 13.009 26.3424 13.009ZM26.3424 10.7221C25.7352 10.7221 25.2416 11.2157 25.2416 11.8229C25.2416 12.43 25.7352 12.9237 26.3424 12.9237C26.9495 12.9237 27.4432 12.43 27.4432 11.8229C27.4432 11.2157 26.9495 10.7221 26.3424 10.7221Z" fill="white"/>
<path d="M22.0991 49.8321C27.4415 46.9958 31.2156 43.6478 30.5288 42.3541C29.8419 41.0604 24.9543 42.311 19.6119 45.1474C14.2695 47.9837 10.4954 51.3317 11.1822 52.6254C11.869 53.9191 16.7567 52.6685 22.0991 49.8321Z" fill="#1A2E05"/>
<path d="M19.2266 28.2539C19.2266 28.2539 23.1399 28.6417 25.4994 30.6727C28.1149 32.9238 31.9421 37.5203 31.9421 37.5203L28.1149 40.7343L19.2266 28.2539Z" fill="#BEF264"/>
<path d="M29.7414 19.9942C29.7414 19.9942 28.8433 18.4143 27.8368 19.0969C27.1298 19.5765 27.8573 21.0203 28.2169 21.7598C28.5766 22.4992 28.3714 24.3944 28.4435 25.2699C28.5809 26.9374 29.7576 27.2881 29.7576 27.2881L28.7963 35.8334C28.7963 35.8334 26.8998 46.9173 33.2431 43.0043C36.2174 41.1697 34.7377 25.7947 34.7377 25.7947L29.7414 19.9942Z" fill="#65A30D"/>
<path d="M30.8509 27.4916C30.2813 27.4916 29.7799 27.3393 29.7488 27.3295C29.7262 27.3227 29.7138 27.2988 29.7206 27.2762C29.7275 27.2536 29.7513 27.2412 29.774 27.248C29.7855 27.2514 30.9217 27.597 31.7016 27.2497C31.7234 27.2403 31.7486 27.2497 31.758 27.2715C31.7673 27.2932 31.758 27.3184 31.7362 27.3278C31.4601 27.4507 31.1461 27.4916 30.8509 27.4916Z" fill="#1A2E05"/>
<path d="M32.9268 25.1024C32.9076 25.1024 32.8902 25.0892 32.8855 25.0696C32.6568 24.1228 32.1277 23.528 31.3128 23.3023C30.7018 23.1334 30.1505 23.246 30.145 23.2469C30.1219 23.252 30.0993 23.2371 30.0946 23.214C30.0899 23.191 30.1044 23.1684 30.1275 23.1637C30.1505 23.1586 30.7022 23.0459 31.3328 23.2196C31.9165 23.3804 32.6743 23.8284 32.9687 25.05C32.9742 25.073 32.9601 25.096 32.9371 25.1016C32.9337 25.102 32.9303 25.1024 32.9268 25.1024Z" fill="#1A2E05"/>
<path d="M29.7535 15.0645L28.0234 15.4393L30.2718 25.8188L32.0019 25.444L29.7535 15.0645Z" fill="white"/>
<path d="M28.4331 17.3814C28.4134 17.3814 28.3959 17.3681 28.3917 17.3485C28.3866 17.3255 28.4006 17.3024 28.4237 17.2973L30.1867 16.8899C30.2093 16.8843 30.2327 16.8988 30.2379 16.9219C30.243 16.9449 30.2289 16.9679 30.2059 16.9731L28.4429 17.3805C28.4395 17.3814 28.4365 17.3814 28.4331 17.3814Z" fill="#1A2E05"/>
<path d="M29.7335 19.5617C29.6567 19.5617 29.5816 19.54 29.5155 19.4973C29.4246 19.4389 29.3623 19.3484 29.3393 19.243L29.0641 17.9724C29.0411 17.867 29.0607 17.7586 29.1191 17.6678C29.1776 17.5769 29.268 17.5146 29.3734 17.4916C29.5915 17.4446 29.8069 17.5833 29.8543 17.8009L30.1295 19.0715C30.1525 19.1769 30.1329 19.2853 30.0744 19.3761C30.016 19.467 29.9255 19.5293 29.8202 19.5524C29.7911 19.5588 29.7621 19.5617 29.7335 19.5617Z" fill="#1A2E05"/>
<path d="M29.9022 24.1573C29.8826 24.1573 29.8646 24.1436 29.8604 24.1235C29.8553 24.1005 29.8702 24.0779 29.8932 24.0728L31.6246 23.7041C31.6477 23.699 31.6703 23.7139 31.6754 23.737C31.6805 23.76 31.6656 23.7826 31.6426 23.7878L29.9112 24.1564C29.9082 24.1573 29.9052 24.1573 29.9022 24.1573Z" fill="#1A2E05"/>
<path d="M34.7399 25.7954C34.7399 25.7954 35.862 24.4173 34.2791 20.9224C33.5879 19.3971 33.0229 19.782 32.5621 19.9586C32.5621 19.9586 32.0331 18.7089 31.318 19.1586C31.318 19.1586 30.6272 18.0045 30.1139 17.9494C29.6007 17.8944 29.5998 18.9026 30.1152 19.7073C30.1152 19.7073 28.6436 20.2961 28.7738 20.7778C28.9811 21.5458 29.6659 21.4575 30.7834 20.8371C30.7834 20.8371 30.1583 21.1272 29.9313 21.4361C29.6958 21.7566 29.8682 22.1124 29.9514 22.5267C30.2364 23.9454 30.9408 23.1868 30.9408 23.1868C30.9408 23.1868 31.1938 24.8337 32.1436 24.2338C32.3847 24.0815 32.4333 23.7039 32.4333 23.7039" fill="#65A30D"/>
<path d="M31.7534 24.4042C31.5311 24.4042 31.3365 24.2783 31.1838 24.033C30.8454 23.4894 30.7955 22.4714 31.0182 22.2175C31.316 21.8779 32.8072 21.1799 32.8704 21.1505C32.8917 21.1406 32.9169 21.1496 32.9271 21.1709C32.9369 21.1923 32.928 21.2179 32.9066 21.2277C32.8913 21.2349 31.3685 21.9475 31.0826 22.2739C30.9009 22.4808 30.929 23.4621 31.2567 23.9882C31.4278 24.2634 31.6454 24.3679 31.9027 24.2984C32.0815 24.2502 32.212 24.1495 32.2914 23.9985C32.5124 23.5773 32.2756 22.8972 32.273 22.8904C32.2658 22.8699 32.2752 22.8469 32.2948 22.8375C32.3238 22.8238 33.0056 22.5013 33.2322 22.4569C33.2552 22.4522 33.2778 22.4676 33.2821 22.4906C33.2868 22.5137 33.2714 22.5363 33.2484 22.5405C33.0598 22.5777 32.5081 22.8319 32.3652 22.8985C32.4138 23.0517 32.5768 23.6371 32.3665 24.0377C32.2756 24.2109 32.1267 24.3261 31.9245 24.3807C31.866 24.3965 31.8088 24.4042 31.7534 24.4042Z" fill="#1A2E05"/>
<path d="M29.4069 21.334C29.2128 21.334 29.0387 21.2862 28.9175 21.1594C28.752 20.9862 28.6893 20.8074 28.7315 20.6287C28.8126 20.2861 29.2734 19.9622 30.1007 19.6665L31.3005 19.1191C31.3218 19.1093 31.3474 19.1187 31.3568 19.14C31.3666 19.1614 31.3572 19.187 31.3359 19.1964L30.1327 19.745C29.3421 20.0279 28.8877 20.3394 28.8147 20.6479C28.7793 20.7968 28.8348 20.9491 28.979 21.1001C29.4197 21.5609 30.7488 20.8066 30.762 20.7989C30.774 20.7929 31.7736 20.2873 32.5438 19.9191C32.5651 19.9089 32.5907 19.9178 32.6005 19.9392C32.6108 19.9605 32.6018 19.9861 32.5805 19.9959C31.8108 20.3637 30.8124 20.8689 30.8021 20.874C30.7612 20.8983 29.9927 21.334 29.4069 21.334Z" fill="#1A2E05"/>
<path d="M31.5972 24.3799C31.5806 24.3799 31.5648 24.3701 31.558 24.3535C31.549 24.3317 31.5593 24.3065 31.581 24.2976C31.6186 24.2818 31.6438 24.2528 31.6574 24.2084C31.7193 24.0109 31.5422 23.6081 31.4381 23.4464C31.418 23.4148 31.3907 23.3965 31.3545 23.3892C31.2444 23.3679 31.0814 23.4613 31.0281 23.4989C31.0089 23.5125 30.982 23.5078 30.9688 23.4886C30.9551 23.4694 30.9598 23.4425 30.979 23.4293C30.988 23.4229 31.2026 23.2723 31.3711 23.3056C31.4304 23.3171 31.4774 23.3491 31.5102 23.4003C31.5981 23.5373 31.8153 23.9887 31.7389 24.234C31.7176 24.3027 31.6753 24.3509 31.6139 24.3765C31.6079 24.3786 31.6024 24.3799 31.5972 24.3799Z" fill="#1A2E05"/>
<path d="M30.3371 23.337C30.3175 23.337 30.3 23.3237 30.2958 23.3037C30.2906 23.2806 30.3051 23.258 30.3278 23.2525C30.3674 23.2435 30.3973 23.2192 30.4186 23.1778C30.5134 22.9935 30.4084 22.5664 30.3337 22.3893C30.3192 22.3548 30.2958 22.3317 30.2612 22.3189C30.1562 22.2788 29.9796 22.3428 29.9203 22.371C29.899 22.3812 29.8734 22.3718 29.8635 22.3505C29.8533 22.3292 29.8627 22.304 29.8836 22.2938C29.8934 22.2891 30.1306 22.1777 30.2911 22.2391C30.3474 22.2609 30.3883 22.3002 30.4118 22.3565C30.475 22.5062 30.6115 22.9888 30.4942 23.2171C30.4613 23.2811 30.4114 23.3212 30.3465 23.3361C30.3431 23.337 30.3401 23.337 30.3371 23.337Z" fill="#1A2E05"/>
<path d="M29.5346 21.1383C29.4753 21.1383 29.4165 21.1297 29.3618 21.108C29.2432 21.0615 29.1617 20.9625 29.1195 20.8149C28.9966 20.3839 29.5445 20.0332 29.5679 20.0183C29.5837 20.0085 29.6042 20.0097 29.6183 20.0217C29.6388 20.0392 30.1239 20.4577 30.0821 20.9407C30.0808 20.9544 30.0731 20.9663 30.0616 20.9736C30.0479 20.9821 29.7855 21.1383 29.5346 21.1383Z" fill="#1A2E05"/>
<path d="M28.2535 21.8783C28.2338 21.8783 28.2164 21.8651 28.2121 21.845C28.207 21.822 28.2215 21.7994 28.2441 21.7938C28.518 21.7319 28.6558 21.5481 28.6537 21.2477C28.649 20.6205 28.0406 19.7578 27.7308 19.6925C27.6608 19.6775 27.6135 19.704 27.5815 19.7757C27.5717 19.797 27.5465 19.8068 27.5252 19.797C27.5038 19.7872 27.494 19.762 27.5038 19.7407C27.5525 19.6327 27.6395 19.5862 27.7487 19.6093C28.1212 19.6878 28.7348 20.6158 28.739 21.2477C28.7416 21.5886 28.5769 21.8066 28.2629 21.8774C28.2599 21.8779 28.2565 21.8783 28.2535 21.8783Z" fill="#1A2E05"/>
<path d="M30.2003 42.3066C30.2003 42.3066 33.6849 48.0014 35.7026 56.1857H12.4531C12.4531 56.1857 12.5077 50.895 15.1552 45.4653L30.2003 42.3066Z" fill="#A3E635"/>
<path d="M27.5422 56.228C27.5238 56.228 27.5068 56.2157 27.5012 56.1973C26.749 53.5874 25.478 50.9429 25.4652 50.9164C25.4549 50.8951 25.4639 50.8699 25.4852 50.8597C25.5066 50.8495 25.5322 50.8584 25.5424 50.8798C25.5552 50.9062 26.8292 53.5571 27.5836 56.1738C27.59 56.1964 27.5772 56.2199 27.5546 56.2267C27.5503 56.2276 27.546 56.228 27.5422 56.228Z" fill="#1A2E05"/>
<path d="M15.0365 52.7849C15.0284 52.7849 15.0203 52.7827 15.0135 52.778C15.0015 52.7704 14.9938 52.7571 14.9938 52.7431C14.9623 51.2101 15.3945 48.6778 15.3987 48.6522C15.4026 48.6291 15.4248 48.6134 15.4478 48.6172C15.4709 48.621 15.4866 48.6432 15.4828 48.6667C15.4785 48.6914 15.06 51.1448 15.0779 52.6752C15.284 52.5737 16.002 52.1901 16.7363 51.4503C17.5342 50.6464 18.5155 49.2444 18.6589 47.1315C18.6606 47.1081 18.6807 47.0906 18.7046 47.0919C18.728 47.0936 18.7459 47.1136 18.7442 47.1375C18.5992 49.2781 17.6038 50.6985 16.7944 51.513C15.9176 52.3958 15.0621 52.7776 15.0536 52.7815C15.0484 52.7836 15.0425 52.7849 15.0365 52.7849Z" fill="#1A2E05"/>
<path d="M32.3126 46.6638C31.0838 46.6638 30.1802 45.9167 29.6345 45.2822C29.0329 44.5825 28.7252 43.8653 28.7222 43.858C28.7129 43.8363 28.7231 43.8111 28.7448 43.8021C28.7666 43.7932 28.7918 43.803 28.8007 43.8247C28.8037 43.832 29.1071 44.539 29.7006 45.2285C30.2454 45.8617 31.1555 46.6105 32.3894 46.5776C32.4138 46.5776 32.4325 46.5959 32.4334 46.619C32.4338 46.6425 32.4155 46.6621 32.392 46.6629C32.3655 46.6634 32.3391 46.6638 32.3126 46.6638Z" fill="#1A2E05"/>
<path d="M30.1983 42.3053C11.0619 47.1339 11.0888 52.3793 11.0888 52.3793L11.0619 47.1343C5.65819 45.0522 2.21115 35.3762 2.91003 31.2772C3.60891 27.1783 7.52144 27.5081 12.4511 27.654L19.2292 28.253C19.2292 28.253 20.6577 28.669 23.3593 31.2772C26.061 33.8855 27.7523 37.603 27.7523 37.603L30.1983 42.3053Z" fill="#BEF264"/>
<path d="M15.1069 30.9756C14.4123 30.9756 13.8035 30.8373 13.2842 30.5613C12.107 29.9345 11.8395 28.7957 11.837 28.7842C11.8318 28.7612 11.8464 28.7386 11.8694 28.7334C11.8924 28.7283 11.915 28.7428 11.9202 28.7659C11.9227 28.777 12.183 29.8795 13.326 30.487C14.4891 31.1053 16.119 31.0131 18.1708 30.2131C18.1926 30.2046 18.2173 30.2153 18.2259 30.2374C18.2344 30.2592 18.2237 30.284 18.2016 30.2925C17.0338 30.7477 15.9995 30.9756 15.1069 30.9756Z" fill="#1A2E05"/>
<path d="M11.7229 37.9045C11.7089 37.9045 11.6952 37.8977 11.6871 37.8853L7.3897 31.3001C7.3769 31.2805 7.38245 31.2541 7.40208 31.2413C7.4217 31.2285 7.44816 31.234 7.46096 31.2536L11.7583 37.8384C11.7711 37.858 11.7656 37.8845 11.746 37.8973C11.7391 37.9024 11.731 37.9045 11.7229 37.9045Z" fill="#1A2E05"/>
<path d="M30.1941 42.3496C30.1791 42.3496 30.1642 42.3415 30.1565 42.3274C29.1492 40.4897 27.8576 37.9084 27.8448 37.8828C25.9701 33.3503 23.3555 31.3326 23.3294 31.313C23.3107 31.2989 23.3068 31.272 23.3213 31.2533C23.3354 31.2345 23.3623 31.2306 23.3811 31.2452C23.4075 31.2652 26.0396 33.2949 27.9225 37.8478C27.934 37.8709 29.2247 40.4505 30.2316 42.2869C30.2431 42.3073 30.2355 42.3334 30.2146 42.3449C30.2077 42.3479 30.2009 42.3496 30.1941 42.3496Z" fill="#1A2E05"/>
<path d="M14.0975 42.5928C14.1913 40.0327 13.1292 37.9156 11.7253 37.8642C10.3214 37.8128 9.10733 39.8465 9.01357 42.4066C8.9198 44.9667 9.98188 47.0838 11.3858 47.1352C12.7897 47.1866 14.0038 45.1529 14.0975 42.5928Z" fill="#1A2E05"/>
<path d="M14.0981 42.5906C14.058 43.6799 13.8156 44.6732 13.4419 45.4518C12.9371 46.5036 12.193 47.1628 11.3862 47.1333C10.2713 47.0924 9.37191 45.7492 9.09543 43.9167C9.02417 43.441 8.99431 42.9319 9.01351 42.4046C9.10695 39.8446 10.3212 37.8107 11.7254 37.8623C13.1296 37.9139 14.192 40.0306 14.0981 42.5906Z" fill="#1A2E05"/>
<path d="M12.4531 27.6543C12.4531 27.6543 12.6281 29.547 14.7942 29.8947C16.25 30.1285 18.6099 29.4454 19.2312 28.2533L12.4531 27.6543Z" fill="#65A30D"/>
<path d="M12.2422 25.3924L12.447 27.655L14.8858 28.2537L13.9762 25.2832L12.2422 25.3924Z" fill="#65A30D"/>
<path d="M14.9757 26.7307C15.6579 26.368 15.7262 25.162 15.1281 24.037C14.5301 22.9119 13.4921 22.2939 12.8099 22.6566C12.1276 23.0193 12.0594 24.2253 12.6574 25.3504C13.2555 26.4754 14.2934 27.0934 14.9757 26.7307Z" fill="#65A30D"/>
<path d="M14.3891 23.0729C13.8537 22.761 13.6203 22.668 13.6203 22.668C13.645 23.1429 12.8292 23.9297 12.8292 23.9297C13.2461 24.5761 13.0874 24.9844 12.761 25.0697L12.8228 25.6248C13.0238 26.9902 10.9655 26.9505 9.57376 27.1578C8.1824 27.3648 5.84128 30.284 5.84128 30.284L1.77344 25.7946C2.78805 23.3311 8.78698 24.4694 9.33866 23.7778C10.4531 22.3804 11.5868 21.9406 12.9252 22.168C12.9252 22.168 13.1377 21.8983 13.6203 22.0024C14.3891 22.1684 14.3891 23.0729 14.3891 23.0729Z" fill="#1A2E05"/>
<path d="M13.0937 25.4154C13.2102 25.1549 12.9595 24.7893 12.5338 24.5989C12.1081 24.4085 11.6685 24.4654 11.552 24.7259C11.4355 24.9864 11.6862 25.3519 12.1119 25.5423C12.5376 25.7327 12.9772 25.6759 13.0937 25.4154Z" fill="#65A30D"/>
<path d="M14.7178 25.462C14.5915 25.462 14.4528 25.4317 14.4127 25.4224C14.3897 25.4168 14.3756 25.3938 14.3812 25.3712C14.3867 25.3481 14.4093 25.334 14.4324 25.3396C14.5787 25.3741 14.8083 25.3993 14.8607 25.3477C14.8646 25.3443 14.8723 25.3366 14.8671 25.314C14.7925 24.9769 14.3624 24.2951 14.3581 24.2883C14.3457 24.2682 14.3513 24.2422 14.3713 24.2294C14.3914 24.2166 14.4174 24.2226 14.4302 24.2426C14.4481 24.2712 14.8723 24.9441 14.9503 25.2956C14.9631 25.3524 14.9414 25.3887 14.9205 25.4087C14.8791 25.4488 14.801 25.462 14.7178 25.462Z" fill="#1A2E05"/>
<path d="M14.1807 24.7086C14.2591 24.6832 14.2869 24.5518 14.2427 24.415C14.1984 24.2782 14.099 24.1879 14.0205 24.2133C13.942 24.2387 13.9143 24.3701 13.9585 24.5069C14.0027 24.6437 14.1022 24.734 14.1807 24.7086Z" fill="#1A2E05"/>
<path d="M14.9464 24.4625C15.0249 24.4371 15.0526 24.3057 15.0084 24.1689C14.9642 24.0321 14.8647 23.9418 14.7862 23.9672C14.7077 23.9926 14.68 24.124 14.7242 24.2608C14.7684 24.3976 14.8679 24.4879 14.9464 24.4625Z" fill="#1A2E05"/>
<path d="M14.4434 26.8728C14.3581 26.8728 13.9114 26.8523 13.4971 26.444C13.4804 26.4273 13.48 26.4004 13.4966 26.3838C13.5133 26.3671 13.5402 26.3667 13.5568 26.3834C13.9809 26.8019 14.4485 26.7878 14.4532 26.7874C14.4767 26.7861 14.4968 26.8049 14.4976 26.8284C14.4985 26.8518 14.4801 26.8719 14.4566 26.8728C14.4566 26.8728 14.4511 26.8728 14.4434 26.8728Z" fill="#1A2E05"/>
<path d="M13.8239 24.0774C13.8136 24.0774 13.8034 24.0736 13.7953 24.0663C13.7778 24.0505 13.7765 24.0236 13.7923 24.0061C13.954 23.8282 14.1396 23.8867 14.2155 23.943C14.2343 23.9571 14.2386 23.9835 14.2245 24.0027C14.2104 24.0215 14.184 24.0258 14.1652 24.0117C14.149 23.9997 14.0026 23.902 13.8559 24.0637C13.8469 24.0723 13.8354 24.0774 13.8239 24.0774Z" fill="#1A2E05"/>
<path d="M14.5348 23.9278C14.5314 23.9278 14.528 23.9274 14.5246 23.9265C14.5015 23.921 14.4879 23.8979 14.4934 23.8749C14.5514 23.6394 14.7989 23.6146 14.9218 23.6343C14.9448 23.6381 14.961 23.6599 14.9572 23.6833C14.9534 23.7064 14.9316 23.7226 14.9081 23.7187C14.8962 23.717 14.6304 23.6778 14.5762 23.8954C14.5715 23.9146 14.554 23.9278 14.5348 23.9278Z" fill="#1A2E05"/>
<path d="M13.0917 25.1638C13.0772 25.1638 13.0627 25.1562 13.0551 25.1425C13.0538 25.1404 12.9262 24.9228 12.8033 24.8127C12.7858 24.7969 12.7841 24.77 12.7999 24.7525C12.8157 24.735 12.8426 24.7333 12.8601 24.7491C12.9932 24.8682 13.1233 25.09 13.1289 25.0994C13.1408 25.1199 13.134 25.1459 13.1135 25.1579C13.1063 25.1621 13.099 25.1638 13.0917 25.1638Z" fill="#1A2E05"/>
<path d="M12.7605 25.2575C12.7562 25.2575 12.7515 25.2567 12.7472 25.2554L11.8653 24.964C11.8431 24.9567 11.8308 24.9324 11.838 24.9102C11.8453 24.8881 11.8696 24.8757 11.8918 24.8829L12.7737 25.1743C12.7959 25.1816 12.8083 25.2059 12.801 25.2281C12.795 25.2465 12.7784 25.2575 12.7605 25.2575Z" fill="#1A2E05"/>
<path d="M14.5308 25.6476L13.625 25.6348C13.625 25.6348 13.7594 26.4531 14.1861 26.4254C14.5308 26.4028 14.5308 25.6476 14.5308 25.6476Z" fill="white"/>
<path d="M27.3026 25.418C26.7125 26.614 27.1985 28.0032 26.2658 27.9938C25.4351 27.9853 25.4483 26.8474 25.45 26.7714C25.447 26.8747 25.3608 29.0665 23.4886 29.2653C23.4886 29.2653 18.9335 41.7581 17.1633 44.1338C16.3637 45.2068 14.9147 45.5358 13.4415 45.4517C11.6537 45.3502 9.83143 44.6406 9.09543 43.9166C9.02417 43.4409 8.99431 42.9318 9.01351 42.4045C9.10695 39.8445 10.3212 37.8106 11.7254 37.8622C13.0097 34.5845 20.2289 25.2149 20.2289 25.2149C20.2289 25.2149 20.5263 23.0168 21.2123 22.1254C21.3429 21.9556 23.856 19.6943 25.1599 19.0739C26.3332 18.5158 27.0231 20.281 24.8804 21.9578C24.8804 21.9578 25.5012 21.8861 25.9671 22.1259C26.433 22.3652 26.0772 23.3854 26.0772 23.3854C26.0772 23.3854 27.0538 23.4212 26.8772 24.694C26.8772 24.694 27.5901 24.8365 27.3026 25.418Z" fill="#65A30D"/>
<path d="M16.863 29.7895C16.8545 29.7895 16.8455 29.787 16.8378 29.7814C16.8186 29.7674 16.8148 29.7409 16.8284 29.7217L17.9932 28.123C18.0073 28.1038 18.0338 28.0999 18.053 28.1136C18.0722 28.1277 18.076 28.1541 18.0624 28.1733L16.8976 29.772C16.8894 29.7836 16.8762 29.7895 16.863 29.7895Z" fill="#1A2E05"/>
<path d="M10.4567 41.0097C10.4528 41.0097 10.4486 41.0092 10.4447 41.008C10.4221 41.0011 10.4093 40.9777 10.4157 40.9551C10.4443 40.8582 11.1171 38.5798 11.6923 37.837C11.7068 37.8182 11.7337 37.8148 11.752 37.8293C11.7708 37.8438 11.7742 37.8707 11.7597 37.889C11.1944 38.6195 10.504 40.9555 10.4972 40.979C10.4925 40.9977 10.4754 41.0097 10.4567 41.0097Z" fill="#1A2E05"/>
<path d="M23.0348 22.1676C23.0134 22.1676 22.9951 22.1518 22.9925 22.13C22.9895 22.1066 23.0062 22.0852 23.0297 22.0822C23.0855 22.0754 24.4005 21.9103 24.8831 21.9141C24.9066 21.9141 24.9258 21.9333 24.9253 21.9572C24.9253 21.9807 24.9061 21.9995 24.8827 21.9995C24.878 21.9999 24.8729 21.9995 24.8682 21.9995C24.3783 21.9995 23.054 22.1654 23.0403 22.1671C23.0382 22.1676 23.0348 22.1676 23.0348 22.1676Z" fill="#1A2E05"/>
<path d="M24.2612 23.4641C24.2395 23.4641 24.2211 23.4479 24.219 23.4257C24.2164 23.4022 24.2335 23.3813 24.257 23.3788C24.2668 23.3779 25.2571 23.2764 26.0831 23.3429C26.1066 23.3446 26.1241 23.3655 26.1224 23.389C26.1207 23.4125 26.0997 23.4304 26.0763 23.4282C25.2584 23.3625 24.2757 23.4628 24.2659 23.4637L24.2612 23.4641Z" fill="#1A2E05"/>
<path d="M26.8777 24.7367C26.8734 24.7367 26.8696 24.7363 26.8653 24.735C26.1899 24.5327 25.2717 24.7337 25.2627 24.7358C25.2397 24.7409 25.2171 24.7264 25.212 24.7034C25.2068 24.6804 25.2214 24.6577 25.2444 24.6526C25.2828 24.6441 26.1929 24.4448 26.89 24.6535C26.9127 24.6603 26.9255 24.6842 26.9186 24.7064C26.9131 24.7247 26.896 24.7367 26.8777 24.7367Z" fill="#1A2E05"/>
<path d="M25.5037 25.8348C25.4811 25.8348 25.4623 25.8173 25.461 25.7942C25.4597 25.7708 25.4776 25.7507 25.5015 25.7494C25.5054 25.749 25.9026 25.729 26.3753 25.7494C26.3988 25.7503 26.4172 25.7703 26.4163 25.7938C26.4155 25.8173 26.3946 25.8352 26.3719 25.8348C25.9035 25.8143 25.5105 25.8348 25.5067 25.8348H25.5037Z" fill="#1A2E05"/>
<path d="M23.0897 29.3857C23.068 29.3857 23.0492 29.369 23.0471 29.3469C23.0449 29.3234 23.0624 29.3029 23.0859 29.3008C24.505 29.1775 24.892 28.668 25.2696 27.4968C25.4867 26.8231 25.459 25.8042 25.459 25.794C25.4581 25.7705 25.4769 25.7509 25.5004 25.7501C25.5234 25.7488 25.5435 25.768 25.5443 25.7914C25.5448 25.8017 25.5729 26.8355 25.3511 27.5229C24.9688 28.7086 24.5519 29.259 23.0936 29.3857H23.0897Z" fill="#1A2E05"/>
<path d="M51.6123 16.1426L52.5001 18.456L49.7188 20.3192V17.4776L51.6123 16.1426Z" fill="#4D7C0F"/>
<path d="M51.4938 16.1246C51.7737 14.7606 51.3299 13.5172 50.5026 13.3474C49.6753 13.1777 48.7777 14.1458 48.4978 15.5098C48.218 16.8738 48.6618 18.1172 49.4891 18.2869C50.3164 18.4567 51.2139 17.4886 51.4938 16.1246Z" fill="#4D7C0F"/>
<path d="M48.2344 14.3639C48.2344 14.3639 48.4217 14.8085 48.6841 14.87C48.6841 14.87 48.8825 14.1642 49.5357 13.6318C49.5357 13.6318 49.8002 14.8695 50.9727 14.7919L50.6702 15.5108L51.7177 16.4042C51.7177 16.4042 52.321 15.5471 52.5049 14.5017L50.2713 12.9043L48.2344 13.5029V14.3639Z" fill="#1A2E05"/>
<path d="M49.9802 18.3037C49.9601 18.3037 49.9426 18.2896 49.9384 18.2695C49.9337 18.2465 49.9486 18.2239 49.9716 18.2192C49.9789 18.2179 50.685 18.063 51.1339 17.0527C51.1433 17.0313 51.1684 17.0215 51.1902 17.0309C51.2115 17.0403 51.2213 17.0659 51.212 17.0872C50.7439 18.1407 50.0194 18.2964 49.9887 18.3028C49.9857 18.3032 49.9832 18.3037 49.9802 18.3037Z" fill="#1A2E05"/>
<path d="M52.128 16.1556C52.5158 15.8245 52.6659 15.3637 52.4633 15.1264C52.2607 14.8891 51.7821 14.9652 51.3943 15.2964C51.0065 15.6275 50.8564 16.0883 51.059 16.3256C51.2616 16.5629 51.7402 16.4868 52.128 16.1556Z" fill="#4D7C0F"/>
<path d="M51.5037 16.0348C51.4922 16.0348 51.4807 16.0301 51.4722 16.0211C51.4564 16.0036 51.4572 15.9767 51.4747 15.961L52.0989 15.3862C52.1164 15.3704 52.1433 15.3713 52.1591 15.3888C52.1749 15.4063 52.174 15.4332 52.1565 15.449L51.5323 16.0237C51.5247 16.0314 51.5144 16.0348 51.5037 16.0348Z" fill="#1A2E05"/>
<path d="M48.9498 16.894C48.8401 16.894 48.7548 16.8782 48.7292 16.8351C48.716 16.813 48.7087 16.7767 48.7488 16.7281C49.3457 16.0014 49.12 15.3192 49.1175 15.3124C49.1098 15.2902 49.1217 15.2659 49.1439 15.2582C49.1661 15.2505 49.1904 15.2625 49.1981 15.2846C49.2084 15.3141 49.4417 16.0194 48.8145 16.7822C48.8103 16.7874 48.8077 16.7912 48.8064 16.7938C48.8611 16.8266 49.1597 16.8053 49.4755 16.7451C49.4989 16.7409 49.5211 16.7558 49.5254 16.7793C49.5296 16.8023 49.5147 16.8249 49.4917 16.8292C49.3368 16.8586 49.1158 16.894 48.9498 16.894Z" fill="#1A2E05"/>
<path d="M49.9529 15.7852C50.0409 15.7652 50.0842 15.625 50.0495 15.4719C50.0148 15.3189 49.9154 15.2109 49.8273 15.2309C49.7393 15.2508 49.6961 15.3911 49.7307 15.5441C49.7654 15.6972 49.8649 15.8051 49.9529 15.7852Z" fill="#1A2E05"/>
<path d="M48.9216 16.0137C49.0097 15.9937 49.0529 15.8535 49.0182 15.7004C48.9836 15.5474 48.8841 15.4395 48.7961 15.4594C48.7081 15.4793 48.6648 15.6196 48.6995 15.7726C48.7342 15.9257 48.8336 16.0336 48.9216 16.0137Z" fill="#1A2E05"/>
<path d="M49.5347 15.1463C49.5292 15.1463 49.5237 15.145 49.5181 15.1429C49.4963 15.1335 49.4865 15.1088 49.4955 15.087C49.5347 14.9931 49.6751 14.8365 49.9239 14.9129C49.9465 14.9197 49.9589 14.9436 49.952 14.9663C49.9452 14.9889 49.9213 15.0017 49.8987 14.9944C49.6627 14.9219 49.5778 15.1122 49.574 15.1203C49.5672 15.1365 49.5514 15.1463 49.5347 15.1463Z" fill="#1A2E05"/>
<path d="M48.4959 15.3066C48.4835 15.3066 48.4715 15.3014 48.463 15.2912C48.4481 15.2733 48.4502 15.2464 48.4685 15.231C48.5718 15.1449 48.8159 15.0314 48.9997 15.2182C49.0164 15.2349 49.016 15.2622 48.9993 15.2784C48.9823 15.295 48.9554 15.2946 48.9387 15.278C48.7634 15.0996 48.5325 15.2886 48.5232 15.2967C48.5151 15.3036 48.5052 15.3066 48.4959 15.3066Z" fill="#1A2E05"/>
<path d="M49.8317 17.1212C49.8138 17.1212 49.7972 17.1097 49.7912 17.0922C49.7839 17.07 49.7959 17.0457 49.8181 17.038C49.8223 17.0368 50.2281 16.8968 50.3365 16.5363C50.3433 16.5137 50.3672 16.5009 50.3898 16.5077C50.4124 16.5145 50.4252 16.5384 50.4184 16.561C50.2968 16.9647 49.8637 17.1131 49.8449 17.1191C49.8407 17.1208 49.8364 17.1212 49.8317 17.1212Z" fill="#1A2E05"/>
<path d="M50.7325 13.8168L52.5053 14.5008C52.5053 14.5008 52.8031 12.5974 51.416 12.3269C50.0289 12.0564 49.4141 13.5899 49.4141 13.5899L50.7325 13.8168Z" fill="#365314"/>
<path d="M48.0938 11.8253C48.0938 11.8253 49.654 11.1456 50.7313 13.8179L50.4408 13.8938L48.0938 11.8253Z" fill="#1A2E05"/>
<path d="M48.2341 14.3642L50.4417 13.894C50.4417 13.894 49.492 11.7555 48.0946 11.8259C46.6973 11.8963 48.2341 14.3642 48.2341 14.3642Z" fill="#365314"/>
<path d="M51.324 14.1292C51.3159 14.1292 51.3074 14.1266 51.3001 14.1219C51.2805 14.1087 51.2754 14.0822 51.2886 14.0626C51.7622 13.3641 51.3756 12.3538 51.3718 12.3436C51.3633 12.3218 51.3739 12.2971 51.3961 12.2881C51.4179 12.2796 51.4426 12.2902 51.4512 12.3124C51.4682 12.3555 51.8582 13.3744 51.3594 14.1104C51.3513 14.1228 51.3377 14.1292 51.324 14.1292Z" fill="#1A2E05"/>
<path d="M51.4211 16.5093C51.36 16.5093 51.3199 16.502 51.3161 16.5016C51.2931 16.4973 51.2777 16.4751 51.282 16.4521C51.2862 16.4291 51.308 16.4137 51.3315 16.418C51.3315 16.418 51.5166 16.45 51.6954 16.3655C51.7167 16.3552 51.7423 16.3646 51.7521 16.386C51.7624 16.4073 51.753 16.4329 51.7317 16.4427C51.616 16.4973 51.5008 16.5093 51.4211 16.5093Z" fill="#1A2E05"/>
<path d="M41.1243 25.2227C40.5842 26.3503 38.5673 31.9025 38.9658 34.2006C39.3643 36.4986 43.3818 39.7327 48.4967 28.4316L41.1243 25.2227Z" fill="#4D7C0F"/>
<path d="M43.082 33.6214C43.0764 33.6214 43.0709 33.6205 43.0653 33.618C43.0436 33.609 43.0333 33.5838 43.0423 33.5621C43.7053 31.9744 43.6008 29.0445 43.5995 29.0151C43.5987 28.9916 43.617 28.9716 43.6405 28.9707C43.6623 28.9703 43.684 28.9882 43.6849 29.0117C43.6861 29.0411 43.7911 31.9898 43.1212 33.5949C43.1144 33.6116 43.0986 33.6214 43.082 33.6214Z" fill="#1A2E05"/>
<path d="M56.9134 15.9921C54.3883 15.3914 52.5003 18.4561 52.5003 18.4561L49.7193 20.3194C49.7193 20.3194 48.4453 18.2035 46.0696 18.6891C43.6939 19.1746 40.7969 26.3537 40.7969 26.3537L44.6202 27.5979L43.0795 35.53L57.782 36.4606L57.1395 31.1558L61.506 29.9091C61.57 24.7789 59.4384 16.5929 56.9134 15.9921Z" fill="#84CC16"/>
<path d="M44.9565 28.6785C44.9514 28.6785 44.9458 28.6776 44.9407 28.6755C44.9189 28.6665 44.9083 28.6418 44.9172 28.62L47.6654 21.7942C47.6744 21.7725 47.6991 21.7618 47.7209 21.7708C47.7426 21.7797 47.7533 21.8045 47.7443 21.8262L44.9962 28.652C44.9894 28.6682 44.9736 28.6785 44.9565 28.6785Z" fill="#1A2E05"/>
<path d="M52.4994 18.4551L49.3962 19.3865L49.1172 21.4464L52.3641 19.3494L52.4994 18.4551Z" fill="white"/>
<path d="M52.3162 19.9259H52.3128C52.2893 19.9242 52.2718 19.9033 52.2736 19.8798C52.335 19.1101 52.4617 18.4531 52.463 18.4467C52.4677 18.4236 52.4899 18.4083 52.5129 18.413C52.536 18.4176 52.5513 18.4398 52.5466 18.4629C52.5453 18.4693 52.4195 19.1216 52.3585 19.8867C52.3572 19.9088 52.3384 19.9259 52.3162 19.9259Z" fill="#1A2E05"/>
<path d="M55.1341 31.394C55.1179 31.394 55.1021 31.3846 55.0949 31.3684C53.7449 28.316 52.6061 22.7963 52.5946 22.7408C52.5899 22.7177 52.6049 22.6951 52.6279 22.6904C52.6509 22.6853 52.6735 22.7007 52.6782 22.7237C52.6898 22.7792 53.8264 28.29 55.1725 31.3339C55.1819 31.3552 55.1725 31.3808 55.1508 31.3902C55.1457 31.3927 55.1397 31.394 55.1341 31.394Z" fill="#1A2E05"/>
<path d="M43.0862 35.5293C43.0862 35.5293 40.5078 42.7438 40.5078 49.6306H57.4243C57.4243 49.6306 59.567 40.3417 57.7887 36.4599L43.0862 35.5293Z" fill="#1A2E05"/>
<path d="M46.3316 49.6731C46.329 49.6731 46.3269 49.6731 46.3243 49.6726C46.3013 49.6688 46.2855 49.6466 46.2898 49.6231L47.3487 43.547C47.3526 43.5239 47.3748 43.5081 47.3982 43.5124C47.4213 43.5163 47.4371 43.5384 47.4328 43.5619L46.3738 49.6381C46.37 49.6585 46.3521 49.6731 46.3316 49.6731Z" fill="white"/>
<path d="M48.4964 40.857C48.493 40.857 48.49 40.8566 48.4866 40.8557L46.5564 40.4073C46.535 40.4022 46.5205 40.3817 46.5239 40.3599L47.1759 35.7848C47.1793 35.7613 47.2006 35.7451 47.2241 35.7485C47.2476 35.7519 47.2638 35.7732 47.2604 35.7967L46.614 40.333L48.461 40.7618L49.1535 35.9098C49.1569 35.8863 49.1787 35.8701 49.2017 35.8735C49.2252 35.8769 49.2414 35.8983 49.238 35.9217L48.5391 40.8199C48.5374 40.8318 48.531 40.8425 48.5212 40.8489C48.5131 40.8544 48.5049 40.857 48.4964 40.857Z" fill="white"/>
<path d="M56.6276 42.6221C56.6276 42.6221 56.6237 42.6221 56.6216 42.6217C55.563 42.4775 54.7268 41.5512 54.2028 39.9422C53.8094 38.7343 53.7275 37.5529 53.7267 37.5414C53.725 37.5179 53.7429 37.4974 53.7664 37.4961C53.7894 37.4953 53.8103 37.5123 53.8116 37.5358C53.8124 37.5473 53.8939 38.7194 54.2843 39.9175C54.6423 41.0157 55.3399 42.3614 56.6331 42.5372C56.6566 42.5406 56.6728 42.5619 56.6698 42.5854C56.6668 42.6063 56.6489 42.6221 56.6276 42.6221Z" fill="white"/>
<path d="M41.9489 39.3979C41.9255 39.3979 41.9062 39.3787 41.9062 39.3553C41.9062 39.3318 41.9255 39.3126 41.9489 39.3126C41.9532 39.3126 42.3705 39.3079 42.8466 38.9922C43.2874 38.7003 43.8703 38.0749 44.1459 36.7526C44.1506 36.7296 44.1732 36.7146 44.1963 36.7198C44.2193 36.7245 44.2341 36.7471 44.229 36.7701C43.9466 38.1243 43.3442 38.7665 42.8885 39.0664C42.3919 39.3941 41.9668 39.3979 41.9489 39.3979Z" fill="white"/>
<path d="M45.4546 30.1934L41.4051 30.8517C40.9835 30.9204 40.5859 30.6341 40.5172 30.2122L39.3383 22.9627C39.2696 22.5411 39.5559 22.1435 39.9779 22.0748L44.0274 21.4164C44.4489 21.3477 44.8466 21.634 44.9153 22.056L46.0941 29.3055C46.1628 29.727 45.8765 30.1247 45.4546 30.1934Z" fill="#1A2E05"/>
<path d="M45.0405 29.9571L40.991 30.6154C40.5695 30.6841 40.1718 30.3978 40.1031 29.9758L38.9242 22.7263C38.8555 22.3048 39.1418 21.9071 39.5638 21.8384L43.6133 21.1801C44.0349 21.1114 44.4325 21.3977 44.5012 21.8197L45.6801 29.0692C45.7483 29.4911 45.4621 29.8884 45.0405 29.9571Z" fill="white"/>
<path d="M40.0363 23.6723C39.6715 23.6723 39.375 23.3757 39.375 23.0109C39.375 22.6461 39.672 22.3496 40.0363 22.3496C40.4007 22.3496 40.6977 22.6461 40.6977 23.0109C40.6977 23.3757 40.4011 23.6723 40.0363 23.6723ZM40.0363 22.4349C39.7185 22.4349 39.4603 22.6935 39.4603 23.0109C39.4603 23.3284 39.7189 23.5869 40.0363 23.5869C40.3542 23.5869 40.6123 23.3284 40.6123 23.0109C40.6123 22.6935 40.3542 22.4349 40.0363 22.4349Z" fill="#1A2E05"/>
<path d="M40.8772 22.5885C40.7684 22.5885 40.6797 22.4997 40.6797 22.3909C40.6797 22.2821 40.7684 22.1934 40.8772 22.1934C40.986 22.1934 41.0748 22.2821 41.0748 22.3909C41.0748 22.5001 40.986 22.5885 40.8772 22.5885ZM40.8772 22.2791C40.8154 22.2791 40.765 22.3295 40.765 22.3913C40.765 22.4532 40.8154 22.5035 40.8772 22.5035C40.9391 22.5035 40.9894 22.4532 40.9894 22.3913C40.9894 22.3295 40.9391 22.2791 40.8772 22.2791Z" fill="#1A2E05"/>
<path d="M58.5229 31.5344C60.2824 31.1358 61.6168 30.4068 61.5034 29.906C61.39 29.4053 59.8717 29.3224 58.1122 29.7209C56.3527 30.1194 55.0182 30.8484 55.1317 31.3492C55.2451 31.85 56.7634 31.9329 58.5229 31.5344Z" fill="#4D7C0F"/>
<path d="M60.4545 30.8971C59.9404 31.1407 59.2735 31.3681 58.5311 31.5362C56.8957 31.9065 55.4685 31.8617 55.1839 31.4509L55.1835 31.4496C55.1622 31.4189 55.1472 31.386 55.1395 31.351C55.0261 30.8501 56.3611 30.1214 58.1207 29.7229C58.8686 29.5539 59.5735 29.4711 60.1448 29.4707C60.917 29.4703 61.4465 29.62 61.5118 29.9076C61.5775 30.1977 61.159 30.5634 60.4545 30.8971Z" fill="#1A2E05"/>
<path d="M40.0429 29.6071C40.0429 29.6071 38.0751 29.3174 38.0939 26.265C38.108 23.9683 41.0618 23.8224 42.0589 24.0276C43.056 24.2328 42.445 24.9372 42.445 24.9372C42.445 24.9372 43.7907 25.4002 42.5786 26.1191C42.5786 26.1191 43.1704 26.7617 42.204 27.1883C42.204 27.1883 42.8964 27.3838 42.7949 28.0366C42.6933 28.6898 39.9507 29.0405 39.9507 29.0405L40.0429 29.6071Z" fill="#4D7C0F"/>
<path d="M40.0362 29.65C40.0362 29.65 40.0323 29.65 40.0302 29.6495C39.1965 29.5356 38.6619 28.6929 38.6392 28.6571C38.6269 28.6371 38.6328 28.611 38.6529 28.5982C38.673 28.5859 38.699 28.5918 38.7118 28.6119C38.7169 28.6204 39.2485 29.4567 40.0417 29.5651C40.0652 29.568 40.0814 29.5898 40.0784 29.6133C40.0754 29.6346 40.0575 29.65 40.0362 29.65Z" fill="#1A2E05"/>
<path d="M38.7458 25.7043C38.7318 25.7043 38.7177 25.6971 38.7096 25.6843C38.6972 25.6642 38.7032 25.6382 38.7228 25.6254C40.1389 24.7336 42.425 24.8932 42.4476 24.8949C42.4711 24.8966 42.4886 24.9171 42.4869 24.9406C42.4851 24.964 42.4642 24.9815 42.4412 24.9798C42.4186 24.9781 40.1602 24.8211 38.768 25.6975C38.7612 25.7022 38.7535 25.7043 38.7458 25.7043Z" fill="#1A2E05"/>
<path d="M38.9647 26.7851C38.9477 26.7851 38.9319 26.7749 38.9251 26.7583C38.9161 26.7365 38.9268 26.7113 38.9485 26.7028C38.9647 26.696 40.6112 26.0402 42.5726 26.0777C42.5961 26.0782 42.6149 26.0978 42.6144 26.1212C42.614 26.1447 42.5944 26.1626 42.5709 26.1631C40.6279 26.1259 38.9967 26.7753 38.9801 26.7817C38.9758 26.7839 38.9703 26.7851 38.9647 26.7851Z" fill="#1A2E05"/>
<path d="M39.2145 27.807C39.1991 27.807 39.1846 27.7989 39.1769 27.7844C39.1659 27.7634 39.1735 27.7378 39.1944 27.7268C39.2051 27.7208 40.2922 27.1465 42.1858 27.1465C42.2225 27.1465 42.2417 27.1657 42.2417 27.1892C42.2417 27.2126 42.2225 27.2318 42.199 27.2318C40.3153 27.2318 39.2452 27.7963 39.235 27.8018C39.2281 27.8053 39.2213 27.807 39.2145 27.807Z" fill="#1A2E05"/>
<path d="M58.0731 40.3234C53.003 41.1123 47.8625 31.1078 47.8625 31.1078C46.091 31.1355 45.8337 29.64 45.4267 29.64C45.0201 29.64 43.4418 29.9293 43.2387 29.2407C43.06 28.6344 43.9999 28.5499 44.226 28.5384C43.9739 28.5465 42.789 28.6109 42.7476 28.0985C42.6973 27.4781 43.3138 27.5195 43.3138 27.5195C42.6073 27.5353 42.2881 27.2469 42.2459 26.9444C42.1836 26.4955 42.9712 26.3534 42.9712 26.3534C40.6728 26.5646 41.3012 25.044 41.9071 25.0163C43.7072 24.9352 44.8003 25.0935 44.8003 25.0935C43.7004 24.6707 43.8041 23.2703 44.6792 23.4423C45.5543 23.6147 46.926 24.413 48.1497 24.788C50.58 25.5325 50.8522 27.6889 50.8522 27.6889C53.1562 29.8218 55.127 31.3979 55.1841 31.4521L55.1837 31.4508C55.1624 31.4201 55.1474 31.3872 55.1397 31.3523C55.0263 30.8514 56.3613 30.1226 58.1209 29.7241C58.8688 29.5551 59.5737 29.4724 60.145 29.4719C60.2388 29.8606 60.3485 30.347 60.4547 30.8979C61.0922 34.1922 61.6238 39.7704 58.0731 40.3234Z" fill="#4D7C0F"/>
<path d="M58.6958 34.522C58.686 34.522 58.6758 34.5185 58.6676 34.5113L55.1084 31.3834C55.0905 31.368 55.0888 31.3407 55.1046 31.3232C55.1199 31.3053 55.1472 31.3036 55.1647 31.3194L58.724 34.4473C58.7419 34.4627 58.7436 34.49 58.7278 34.5075C58.7193 34.5173 58.7078 34.522 58.6958 34.522Z" fill="#1A2E05"/>
<path d="M42.72 26.4016C41.7916 26.4016 41.4588 26.1481 41.3453 25.925C41.2309 25.7001 41.2928 25.4113 41.5151 25.1322C41.8351 24.7312 44.4804 25.0149 44.7978 25.0503C45.7041 25.0179 47.0515 25.5115 47.0647 25.5162C47.0869 25.5243 47.098 25.5491 47.0899 25.5708C47.0818 25.593 47.057 25.6041 47.0349 25.596C47.0216 25.5909 45.6853 25.1015 44.7974 25.1352C43.9821 25.0439 41.8282 24.8754 41.5812 25.1847C41.3807 25.436 41.3218 25.6916 41.4208 25.8853C41.5786 26.1955 42.1269 26.3461 42.9653 26.3094C44.1834 26.2561 44.6195 26.2787 44.9378 26.2953C45.0833 26.303 45.1976 26.309 45.3512 26.306C45.3739 26.306 45.3943 26.3243 45.3948 26.3478C45.3952 26.3713 45.3764 26.3909 45.3529 26.3913C45.1964 26.3943 45.0748 26.3879 44.9335 26.3807C44.6169 26.3644 44.1835 26.3418 42.9692 26.3947C42.8817 26.3999 42.7989 26.4016 42.72 26.4016Z" fill="#1A2E05"/>
<path d="M43.1665 27.5842C42.8444 27.5842 42.5658 27.5019 42.3921 27.3504C42.2684 27.2425 42.2031 27.1017 42.2031 26.9438C42.2031 26.3674 42.9609 26.311 42.9686 26.3106C42.9929 26.3093 43.0125 26.3268 43.0138 26.3503C43.0155 26.3738 42.9976 26.3942 42.9741 26.3955C42.946 26.3972 42.2885 26.4471 42.2885 26.9438C42.2885 27.0782 42.3422 27.1934 42.4485 27.2864C42.649 27.4613 43.0253 27.536 43.4306 27.481C44.243 27.3709 44.8297 27.3734 45.7556 27.4921C45.779 27.495 45.7957 27.5164 45.7927 27.5398C45.7897 27.5633 45.7684 27.5799 45.7449 27.5765C44.8271 27.4588 44.2464 27.4562 43.4426 27.565C43.3479 27.5778 43.2553 27.5842 43.1665 27.5842Z" fill="#1A2E05"/>
<path d="M43.7609 28.5985C43.2877 28.5985 42.7266 28.514 42.6763 28.0353C42.6579 27.8608 42.6968 27.7238 42.7915 27.6286C42.9579 27.4614 43.234 27.4874 43.2455 27.4883C43.2689 27.4908 43.286 27.5117 43.2834 27.5348C43.2813 27.5583 43.26 27.5753 43.2369 27.5732C42.989 27.5506 42.8517 27.6888 42.7608 28.0259C42.8124 28.5136 43.4703 28.5404 44.173 28.4965C45.1791 28.4333 45.7479 28.4999 45.7534 28.5008C45.7769 28.5037 45.7935 28.5247 45.7905 28.5481C45.7876 28.5716 45.7658 28.5882 45.7432 28.5852C45.7376 28.5848 45.1753 28.5191 44.1782 28.5814C44.063 28.5891 43.9166 28.5985 43.7609 28.5985Z" fill="#1A2E05"/>
<path d="M39.5663 29.1962C39.5578 29.1962 39.5497 29.1936 39.542 29.1885C39.5224 29.1753 39.5177 29.1484 39.5309 29.1292C39.5459 29.1078 39.6154 29.052 39.9409 28.9986C39.9644 28.9948 39.9862 29.0106 39.99 29.0336C39.9939 29.0566 39.9781 29.0788 39.955 29.0827C39.6657 29.13 39.6047 29.1757 39.5988 29.1812C39.5907 29.1911 39.5787 29.1962 39.5663 29.1962Z" fill="#1A2E05"/>
<path d="M39.3394 13.8027H32.8203V18.4828H39.3394V13.8027Z" fill="#A3E635"/>
<path d="M36.0835 16.1857C36.075 16.1857 36.066 16.1831 36.0588 16.1776L32.799 13.8373C32.7798 13.8236 32.7756 13.7968 32.7892 13.7776C32.8029 13.7584 32.8298 13.7541 32.849 13.7677L36.0835 16.0901L39.3181 13.7677C39.3373 13.7541 39.3637 13.7584 39.3778 13.7776C39.3915 13.7968 39.3872 13.8232 39.368 13.8373L36.1083 16.1776C36.101 16.1827 36.0921 16.1857 36.0835 16.1857Z" fill="#1A2E05"/>
<path d="M32.824 18.5254C32.8159 18.5254 32.8078 18.5232 32.8005 18.5185C32.7809 18.5057 32.7753 18.4793 32.7881 18.4592L34.8805 15.281C34.8933 15.2614 34.9202 15.2558 34.9394 15.2686C34.959 15.2814 34.9646 15.3079 34.9518 15.3279L32.8594 18.5062C32.8517 18.5185 32.8381 18.5254 32.824 18.5254Z" fill="#1A2E05"/>
<path d="M39.3385 18.5249C39.3244 18.5249 39.3108 18.5181 39.3027 18.5057L37.2256 15.3275C37.2128 15.3079 37.2184 15.2814 37.238 15.2686C37.2576 15.2558 37.2841 15.2614 37.2969 15.281L39.3739 18.4592C39.3867 18.4788 39.3812 18.5053 39.3615 18.5181C39.3547 18.5228 39.3466 18.5249 39.3385 18.5249Z" fill="#1A2E05"/>
<path d="M8.47304 20.4591H5.24573C4.55325 20.4591 3.99219 19.898 3.99219 19.2055V17.2535C3.99219 16.5611 4.55325 16 5.24573 16H8.47304C9.16552 16 9.72659 16.5611 9.72659 17.2535V19.2055C9.72659 19.898 9.16552 20.4591 8.47304 20.4591Z" fill="#365314"/>
<path d="M7.95602 18.3749C8.439 17.9453 8.15868 17.1252 7.51271 17.1133C7.50716 17.1133 7.50162 17.1133 7.49607 17.1133C7.24732 17.1133 7.02247 17.2161 6.86162 17.3817C6.70076 17.2161 6.47591 17.1133 6.22716 17.1133C6.22162 17.1133 6.21607 17.1133 6.21052 17.1133C5.56412 17.1252 5.28423 17.9457 5.76722 18.3754L6.86162 19.3482L7.95602 18.3749Z" fill="white"/>
<path d="M57.7834 6.99023C55.9223 6.99023 54.4132 8.49893 54.4132 10.3605C54.4132 11.1831 54.708 11.9366 55.1974 12.5215L54.9111 13.0455L54.1875 14.3694L55.5114 13.6458L56.1391 13.3028C56.6255 13.5754 57.1861 13.7307 57.7834 13.7307C59.6446 13.7307 61.1537 12.222 61.1537 10.3605C61.1537 8.49893 59.6446 6.99023 57.7834 6.99023Z" fill="#84CC16"/>
<path d="M58.4995 11.8885H56.2053C56.006 11.8885 55.8439 11.7371 55.8354 11.5433C55.832 11.4584 55.858 11.3761 55.9088 11.3095C55.791 11.2481 55.7155 11.1265 55.7155 10.99C55.7155 10.911 55.7419 10.8342 55.7893 10.7719C55.6715 10.7105 55.596 10.5889 55.596 10.4519C55.596 10.373 55.6225 10.2962 55.6698 10.2339C55.5448 10.1686 55.4676 10.0351 55.4774 9.88959C55.4898 9.701 55.6519 9.55337 55.8456 9.55337H56.9178C56.7446 9.28329 56.7015 8.92276 56.6972 8.65823C56.6951 8.53108 56.7429 8.41161 56.8316 8.32116C56.92 8.23113 57.0386 8.18164 57.1644 8.18164C57.2702 8.18164 57.3628 8.24948 57.3944 8.3506L57.4303 8.46452C57.5092 8.71668 57.653 8.9458 57.8458 9.12671L58.1564 9.41812C58.2499 9.50559 58.3715 9.5538 58.4995 9.5538C58.5421 9.59647 58.5421 9.61993 58.4995 9.63913C58.3497 9.63913 58.2072 9.58281 58.098 9.48041L57.7874 9.189C57.5839 8.99828 57.4324 8.75636 57.3488 8.49012L57.3129 8.3762C57.2924 8.31092 57.2327 8.26697 57.1644 8.26697C57.0612 8.26697 56.9648 8.30751 56.8922 8.38089C56.8197 8.45471 56.7804 8.55284 56.7821 8.65695C56.7868 8.93215 56.8342 9.31401 57.0335 9.57001C57.0381 9.61481 57.016 9.63871 56.9997 9.63871H55.8452C55.6959 9.63871 55.5717 9.75135 55.5619 9.89513C55.5533 10.0231 55.6327 10.1388 55.7543 10.1772C55.7867 10.2237 55.7816 10.239 55.7705 10.2497C55.7138 10.3017 55.6809 10.376 55.6809 10.4524C55.6809 10.5735 55.7586 10.6789 55.8742 10.7152C55.9066 10.7617 55.9015 10.7771 55.8904 10.7873C55.8337 10.8393 55.8008 10.9136 55.8008 10.99C55.8008 11.1111 55.8785 11.2165 55.9941 11.2528C56.0265 11.2993 56.0214 11.3147 56.0103 11.3249C55.9501 11.3799 55.9177 11.4584 55.9211 11.5395C55.9271 11.685 56.0551 11.8032 56.2057 11.8032H58.4999C58.5426 11.8459 58.5229 11.8885 58.4995 11.8885Z" fill="#1A2E05"/>
<path d="M59.6162 12.0869H58.7065C58.5926 12.0869 58.5 11.9944 58.5 11.8804L58.5026 9.57174C58.5026 9.45782 58.5951 9.36523 58.7091 9.36523H59.6187C59.7326 9.36523 59.8252 9.45782 59.8252 9.57174L59.8227 11.8804C59.8227 11.9944 59.7301 12.0869 59.6162 12.0869Z" fill="white"/>
<path d="M37.383 40.593H35.9498C35.6626 40.593 35.4297 40.36 35.4297 40.0728V38.6392C35.4297 38.3521 35.6626 38.1191 35.9498 38.1191H37.383C37.6701 38.1191 37.9031 38.3521 37.9031 38.6392V40.0724C37.9031 40.36 37.6701 40.593 37.383 40.593Z" fill="#365314"/>
<path d="M37.5834 38.8909L37.1299 38.4375L35.75 39.8175L36.2034 40.2709L37.5834 38.8909Z" fill="white"/>
<path d="M37.13 40.2709L37.5834 39.8175L36.2035 38.4375L35.75 38.891L37.13 40.2709Z" fill="white"/>
</g>
</g>
<defs>
<clipPath id="clip0_23478_75970">
<rect width="64" height="64" fill="white"/>
</clipPath>
</defs>
</svg>